<?xml version="1.0" encoding="UTF-8" standalone="no"?>
<!-- Created with Inkscape (http://www.inkscape.org/) -->

<svg
   xmlns:dc="http://purl.org/dc/elements/1.1/"
   xmlns:cc="http://creativecommons.org/ns#"
   xmlns:rdf="http://www.w3.org/1999/02/22-rdf-syntax-ns#"
   xmlns:svg="http://www.w3.org/2000/svg"
   xmlns="http://www.w3.org/2000/svg"
   xmlns:xlink="http://www.w3.org/1999/xlink"
   xmlns:sodipodi="http://sodipodi.sourceforge.net/DTD/sodipodi-0.dtd"
   xmlns:inkscape="http://www.inkscape.org/namespaces/inkscape"
   width="500"
   height="700"
   id="svg2"
   version="1.1"
   inkscape:version="0.48.4 r9939"
   sodipodi:docname="logo crc.svg"
   inkscape:export-filename="C:\Documents and Settings\Optimize\Escritorio\logo empresa.png"
   inkscape:export-xdpi="90"
   inkscape:export-ydpi="90">
  <defs
     id="defs4">
    <linearGradient
       id="linearGradient3890">
      <stop
         style="stop-color:#000000;stop-opacity:1;"
         offset="0"
         id="stop3892" />
      <stop
         style="stop-color:#7bb8d9;stop-opacity:1;"
         offset="1"
         id="stop3894" />
    </linearGradient>
    <linearGradient
       inkscape:collect="always"
       xlink:href="#linearGradient3890"
       id="linearGradient3896"
       x1="174.91246"
       y1="237.58759"
       x2="174.91246"
       y2="68.344414"
       gradientUnits="userSpaceOnUse" />
    <linearGradient
       inkscape:collect="always"
       xlink:href="#linearGradient3890"
       id="linearGradient3900"
       gradientUnits="userSpaceOnUse"
       x1="174.91246"
       y1="237.58759"
       x2="174.91246"
       y2="68.344414" />
    <linearGradient
       inkscape:collect="always"
       xlink:href="#linearGradient3890"
       id="linearGradient3902"
       gradientUnits="userSpaceOnUse"
       x1="174.91246"
       y1="237.58759"
       x2="174.91246"
       y2="68.344414" />
    <linearGradient
       inkscape:collect="always"
       xlink:href="#linearGradient3890"
       id="linearGradient3904"
       gradientUnits="userSpaceOnUse"
       x1="174.91246"
       y1="237.58759"
       x2="174.91246"
       y2="68.344414" />
    <linearGradient
       inkscape:collect="always"
       xlink:href="#linearGradient3890"
       id="linearGradient3934"
       gradientUnits="userSpaceOnUse"
       x1="127.80383"
       y1="175.25435"
       x2="358.28357"
       y2="175.25435" />
  </defs>
  <sodipodi:namedview
     id="base"
     pagecolor="#ffffff"
     bordercolor="#666666"
     borderopacity="1.0"
     inkscape:pageopacity="0.0"
     inkscape:pageshadow="2"
     inkscape:zoom="2"
     inkscape:cx="239.37497"
     inkscape:cy="223.27392"
     inkscape:document-units="px"
     inkscape:current-layer="layer1"
     showgrid="false"
     inkscape:window-width="1920"
     inkscape:window-height="1024"
     inkscape:window-x="-4"
     inkscape:window-y="-4"
     inkscape:window-maximized="1" />
  <metadata
     id="metadata7">
    <rdf:RDF>
      <cc:Work
         rdf:about="">
        <dc:format>image/svg+xml</dc:format>
        <dc:type
           rdf:resource="http://purl.org/dc/dcmitype/StillImage" />
        <dc:title></dc:title>
      </cc:Work>
    </rdf:RDF>
  </metadata>
  <g
     inkscape:label="Capa 1"
     inkscape:groupmode="layer"
     id="layer1"
     transform="translate(0,-352.36218)">
    <g
       transform="matrix(1,0,0,0.80127915,10.60208,311.93452)"
       style="font-size:13px;font-style:normal;font-weight:normal;text-align:center;line-height:125%;letter-spacing:0px;word-spacing:0px;text-anchor:middle;fill:#215c85;fill-opacity:0.82887703;stroke:none;font-family:Sans"
       id="flowRoot2985-1">
      <path
         d="m 200.28357,209.27352 -43.14075,0 c -4.79739,0 -8.66641,-1.98027 -11.60705,-5.94085 -2.9407,-3.96055 -4.41103,-9.17997 -4.41101,-15.65827 l 0,-23.58215 c -2e-5,-7.55853 1.35038,-13.25768 4.0512,-17.09748 2.70078,-3.83964 6.99002,-5.7595 12.86774,-5.75958 l 41.13273,0 1.10714,-14.76013 -42.23987,0 c -8.51809,0 -15.83681,3.36008 -21.95618,10.07996 -2.88209,3.35823 -4.98322,7.28767 -6.3034,11.78833 -1.3202,4.5008 -1.98029,9.75043 -1.98029,15.7489 l 0,23.58215 c 0,24.23951 9.77965,36.35925 29.33899,36.35925 l 42.03361,0 z"
         style="font-size:180px;font-variant:normal;font-stretch:normal;font-family:Acens;-inkscape-font-specification:Acens;fill-opacity:0.82887703;fill:#215c85"
         id="path3033"
         inkscape:connector-curvature="0"
         sodipodi:nodetypes="cscssccccscsssscc" />
      <path
         d="m 280.09436,126.47506 -47.29956,0 c -3.84158,1e-4 -7.74172,1.41001 -11.70044,4.22974 -3.95876,2.81991 -7.1393,6.8702 -9.54163,12.15088 -0.11719,0.11726 -0.17579,0.29671 -0.17578,0.53833 -0.12086,0.12093 -0.18128,0.23994 -0.18127,0.35705 -0.6006,1.3221 -1.32112,3.75282 -2.16156,7.29218 -0.84046,3.53949 -1.26069,8.12903 -1.26068,13.76861 l 0,57.60132 c -1e-5,1.08032 0.42113,1.62048 1.26343,1.62048 l 10.07995,0 c 1.19749,0 1.79625,-0.54016 1.79627,-1.62048 l 0,-57.42004 c -2e-5,-7.92108 1.56003,-13.86101 4.68017,-17.81983 3.12009,-3.95866 8.04013,-5.93803 14.76013,-5.93811 l 38.84009,0 z"
         style="font-size:180px;font-variant:normal;font-stretch:normal;font-family:Acens;-inkscape-font-specification:Acens;fill-opacity:0.82887703;fill:#215c85"
         id="path3035"
         inkscape:connector-curvature="0"
         sodipodi:nodetypes="ccccccsscsscssscc" />
      <path
         sodipodi:nodetypes="cscssccccscsssscc"
         inkscape:connector-curvature="0"
         id="use3039"
         style="font-size:180px;font-variant:normal;font-stretch:normal;fill:#215c85;fill-opacity:0.82887703;font-family:Acens;-inkscape-font-specification:Acens"
         d="m 358.28357,209.27352 -43.14075,0 c -4.79739,0 -8.66641,-1.98027 -11.60705,-5.94085 -2.9407,-3.96055 -4.41103,-9.17997 -4.41101,-15.65827 l 0,-23.58215 c -2e-5,-7.55853 1.35038,-13.25768 4.0512,-17.09748 2.70078,-3.83964 6.99002,-5.7595 12.86774,-5.75958 l 41.13273,0 1.10714,-14.76013 -42.23987,0 c -8.51809,0 -15.83681,3.36008 -21.95618,10.07996 -2.88209,3.35823 -4.98322,7.28767 -6.3034,11.78833 -1.3202,4.5008 -1.98029,9.75043 -1.98029,15.7489 l 0,23.58215 c 0,24.23951 9.77965,36.35925 29.33899,36.35925 l 42.03361,0 z" />
    </g>
    <g
       id="g3068"
       style="font-size:13px;font-style:normal;font-weight:normal;text-align:center;line-height:125%;letter-spacing:0px;word-spacing:0px;text-anchor:middle;fill:#276798;fill-opacity:0.44385028;stroke:none;font-family:Sans"
       transform="matrix(1,0,0,0.80127915,18.60208,551.93452)">
      <path
         sodipodi:nodetypes="cscssccccscsssscc"
         inkscape:connector-curvature="0"
         id="path3070"
         style="font-size:180px;font-variant:normal;font-stretch:normal;font-family:Acens;-inkscape-font-specification:Acens;fill:#276798;fill-opacity:0.44385028"
         d="m 200.28357,209.27352 -43.14075,0 c -4.79739,0 -8.66641,-1.98027 -11.60705,-5.94085 -2.9407,-3.96055 -4.41103,-9.17997 -4.41101,-15.65827 l 0,-23.58215 c -2e-5,-7.55853 1.35038,-13.25768 4.0512,-17.09748 2.70078,-3.83964 6.99002,-5.7595 12.86774,-5.75958 l 41.13273,0 1.10714,-14.76013 -42.23987,0 c -8.51809,0 -15.83681,3.36008 -21.95618,10.07996 -2.88209,3.35823 -4.98322,7.28767 -6.3034,11.78833 -1.3202,4.5008 -1.98029,9.75043 -1.98029,15.7489 l 0,23.58215 c 0,24.23951 9.77965,36.35925 29.33899,36.35925 l 42.03361,0 z" />
      <path
         sodipodi:nodetypes="ccccccsscsscssscc"
         inkscape:connector-curvature="0"
         id="path3072"
         style="font-size:180px;font-variant:normal;font-stretch:normal;fill:#276798;fill-opacity:0.44385028;font-family:Acens;-inkscape-font-specification:Acens"
         d="m 310.09436,126.47506 -87.29956,0 c -3.84158,1e-4 -7.74172,1.41001 -11.70044,4.22974 -3.95876,2.81991 -7.1393,6.8702 -9.54163,12.15088 -0.11719,0.11726 -0.17579,0.29671 -0.17578,0.53833 -0.12086,0.12093 -0.18128,0.23994 -0.18127,0.35705 -0.6006,1.3221 -1.32112,3.75282 -2.16156,7.29218 -0.84046,3.53949 -1.26069,8.12903 -1.26068,13.76861 l 0,57.60132 c -1e-5,1.08032 0.42113,1.62048 1.26343,1.62048 l 10.07995,0 c 1.19749,0 1.79625,-0.54016 1.79627,-1.62048 l 0,-57.42004 c -2e-5,-7.92108 1.56003,-13.86101 4.68017,-17.81983 3.12009,-3.95866 8.04013,-5.93803 14.76013,-5.93811 l 78.84009,0 z" />
      <path
         sodipodi:nodetypes="cscssccccscsssscc"
         inkscape:connector-curvature="0"
         id="use3074"
         style="font-size:180px;font-variant:normal;font-stretch:normal;fill:#276798;fill-opacity:0.44385028;font-family:Acens;-inkscape-font-specification:Acens"
         d="m 338.28357,209.27352 -43.14075,0 c -4.79739,0 -8.66641,-1.98027 -11.60705,-5.94085 -2.9407,-3.96055 -4.41103,-9.17997 -4.41101,-15.65827 l 0,-23.58215 c -2e-5,-7.55853 1.35038,-13.25768 4.0512,-17.09748 2.70078,-3.83964 6.99002,-5.7595 12.86774,-5.75958 l 41.13273,0 1.10714,-14.76013 -42.23987,0 c -8.51809,0 -15.83681,3.36008 -21.95618,10.07996 -2.88209,3.35823 -4.98322,7.28767 -6.3034,11.78833 -1.3202,4.5008 -1.98029,9.75043 -1.98029,15.7489 l 0,23.58215 c 0,24.23951 9.77965,36.35925 29.33899,36.35925 l 42.03361,0 z" />
    </g>
    <g
       id="g3880"
       transform="matrix(0.87386719,0,0,0.87386719,-273.3312,-109.62213)"
       inkscape:export-xdpi="90"
       inkscape:export-ydpi="90">
      <g
         transform="matrix(1,0,0,0.80127915,280.6021,1039.9345)"
         style="font-size:13px;font-style:normal;font-weight:normal;text-align:center;line-height:125%;letter-spacing:0px;word-spacing:0px;text-anchor:middle;fill:url(#linearGradient3896);fill-opacity:1;stroke:none;font-family:Sans"
         id="g3844">
        <path
           d="m 220.28357,224.24957 -63.14075,0 c -4.79739,0 -8.66641,-1.98027 -11.60705,-5.94085 -2.9407,-3.96055 -4.41101,-9.17997 -4.41101,-15.65827 l 0,-34.95549 c -0.23603,-31.93729 5.83448,-51.71807 39.80571,-51.41986 l 38.24596,0 1.10714,-14.76013 -39.3531,0 c -8.94928,0 -26.39014,0.29879 -40.2656,15.79252 -9.23225,10.6388 -13.36162,23.39023 -12.86104,50.38747 l 0,34.95549 c 0,24.23951 10.24845,36.35925 29.33899,36.35925 l 62.03361,0 z"
           style="font-size:180px;font-variant:normal;font-stretch:normal;fill:url(#linearGradient3900);fill-opacity:1;font-family:Acens;-inkscape-font-specification:Acens"
           id="path3846"
           inkscape:connector-curvature="0"
           sodipodi:nodetypes="cscsccccsccsscc" />
        <path
           d="m 220.09436,121.48304 -42.72221,0 c -3.84158,1e-4 -12.31907,1.41001 -16.27779,4.22974 -3.95876,2.81991 -7.1393,6.8702 -9.54163,12.15088 -0.11719,0.11726 -0.17579,0.29671 -0.17578,0.53833 -0.12086,0.12093 -0.18128,0.23994 -0.18127,0.35705 -0.6006,1.3221 -1.32112,3.75282 -2.16156,7.29218 -0.84046,3.53949 -1.26068,8.12903 -1.26068,13.76861 l 0,47.61728 c 0.0342,5.95854 3.9109,11.60452 9.26343,11.60452 l 2.07995,0 c 1.19749,0 1.79625,-0.54016 1.79627,-1.62048 l 0,-57.42004 c -2e-5,-7.92108 1.56003,-13.86101 4.68017,-17.81983 3.12009,-3.95866 8.04013,-5.93803 14.76013,-5.93811 l 38.84009,0 z"
           style="font-size:180px;font-variant:normal;font-stretch:normal;fill:url(#linearGradient3902);fill-opacity:1;font-family:Acens;-inkscape-font-specification:Acens"
           id="path3848"
           inkscape:connector-curvature="0"
           sodipodi:nodetypes="ccccccsscsscssscc" />
        <path
           sodipodi:nodetypes="cscsccccccsscc"
           inkscape:connector-curvature="0"
           id="path3852"
           style="font-size:180px;font-variant:normal;font-stretch:normal;fill:url(#linearGradient3904);fill-opacity:1;font-family:Acens;-inkscape-font-specification:Acens"
           d="m 220.28357,204.2815 -23.14075,0 c -4.79739,0 -8.66641,-1.98027 -11.60705,-5.94085 -2.9407,-3.96055 -4.41101,-9.17997 -4.41101,-15.65827 l 0,-3.61407 c 0.33492,-25.35882 9.04814,-22.05425 16.91894,-22.85706 l 21.13273,0 1.10714,-14.76013 -22.23987,0 c -25.00118,0.19032 -29.93053,1.48674 -30.23987,37.61719 l 0,3.61407 c 0,24.23951 10.24845,36.35925 29.33899,36.35925 l 22.03361,0 z" />
      </g>
      <flowRoot
         transform="matrix(0.65466855,0,0,0.52457226,485.6949,1164.2823)"
         style="font-size:13px;font-style:normal;font-weight:normal;text-align:center;line-height:125%;letter-spacing:0px;word-spacing:0px;text-anchor:middle;fill:#000000;fill-opacity:1;stroke:none;font-family:Sans"
         id="flowRoot3854"
         xml:space="preserve"><flowRegion
           id="flowRegion3856"><rect
             style="text-align:center;text-anchor:middle"
             y="51.42857"
             x="15"
             height="447.85715"
             width="465"
             id="rect3858" /></flowRegion><flowPara
           id="flowPara3860"
           style="font-size:80.43416595px;font-style:normal;font-variant:normal;font-weight:normal;font-stretch:normal;font-family:Acens;-inkscape-font-specification:Acens">INGENIERIA</flowPara></flowRoot>    </g>
    <flowRoot
       transform="matrix(0.68216571,0,0,0.54660516,84.80952,458.81114)"
       style="font-size:13px;font-style:normal;font-weight:normal;text-align:center;line-height:125%;letter-spacing:0px;word-spacing:0px;text-anchor:middle;fill:#000000;fill-opacity:1;stroke:none;font-family:Sans"
       id="flowRoot3862"
       xml:space="preserve"><flowRegion
         id="flowRegion3864"><rect
           style="text-align:center;text-anchor:middle"
           y="51.42857"
           x="15"
           height="447.85715"
           width="465"
           id="rect3866" /></flowRegion><flowPara
         id="flowPara3868"
         style="font-size:80.43416595px;font-style:normal;font-variant:normal;font-weight:normal;font-stretch:normal;font-family:Acens;-inkscape-font-specification:Acens">ingenieria</flowPara></flowRoot>    <flowRoot
       xml:space="preserve"
       id="flowRoot3870"
       style="font-size:13px;font-style:normal;font-weight:normal;text-align:center;line-height:125%;letter-spacing:0px;word-spacing:0px;text-anchor:middle;fill:#266897;fill-opacity:0.82887703;stroke:none;font-family:Sans"
       transform="matrix(0.61361431,0,0,0.49167635,100.78886,702.6911)"><flowRegion
         id="flowRegion3872"><rect
           id="rect3874"
           width="465"
           height="447.85715"
           x="15"
           y="51.42857"
           style="text-align:center;text-anchor:middle;fill:#266897;fill-opacity:0.82887703" /></flowRegion><flowPara
         style="font-size:80.43416594999997900px;font-style:normal;font-variant:normal;font-weight:normal;font-stretch:normal;font-family:Acens;-inkscape-font-specification:Acens;fill:#266897;fill-opacity:0.82887703"
         id="flowPara3876">ingenieria</flowPara></flowRoot>  </g>
</svg>
